<?xml version="1.0" encoding="UTF-8"?>
<svg xmlns="http://www.w3.org/2000/svg" xmlns:xlink="http://www.w3.org/1999/xlink" width="32px" height="32px" viewBox="0 0 32 32" version="1.1">
<g id="surface1">
<path style=" stroke:none;fill-rule:evenodd;fill:rgb(88.627452%,94.117647%,98.823529%);fill-opacity:1;" d="M 24 4.503906 C 27.066406 9.097656 16.113281 17.433594 12.933594 19.785156 C 9.609375 22.25 5.878906 23.507812 2.550781 20.242188 C -1.25 16.503906 4.804688 13.832031 7.578125 12.078125 C 11.328125 9.703125 14.90625 6.394531 18.476562 4.273438 C 20.175781 3.265625 22.59375 2.578125 24 4.503906 Z M 24 4.503906 "/>
<path style=" stroke:none;fill-rule:evenodd;fill:rgb(88.627452%,94.117647%,98.823529%);fill-opacity:1;" d="M 26.25 6.089844 C 29.714844 5.816406 32.066406 9.707031 29.726562 12.949219 C 28.507812 14.640625 22.832031 20.457031 21.164062 21.867188 C 17.570312 24.820312 8.664062 29.835938 4.113281 26.660156 C 1.566406 24.882812 1.691406 22.058594 4.269531 20.242188 C 8.109375 17.53125 11.851562 17.824219 15.917969 14.019531 C 18.683594 11.429688 22.394531 6.621094 26.25 6.089844 Z M 26.25 6.089844 "/>
<path style=" stroke:none;fill-rule:evenodd;fill:rgb(88.627452%,94.117647%,98.823529%);fill-opacity:1;" d="M 29.523438 15.136719 C 31.703125 19.457031 21.308594 25.515625 18.296875 27.214844 C 15.148438 28.992188 11.773438 29.6875 9.230469 26.492188 C 6.328125 22.832031 11.867188 21.167969 14.464844 19.9375 C 17.96875 18.28125 21.429688 15.796875 24.753906 14.339844 C 26.335938 13.644531 28.503906 13.308594 29.523438 15.136719 Z M 29.523438 15.136719 "/>
<path style=" stroke:none;fill-rule:nonzero;fill:rgb(93.725491%,87.450981%,64.705884%);fill-opacity:1;" d="M 11.355469 20.878906 L 11.636719 21.207031 L 11.710938 21.289062 L 11.78125 21.371094 L 11.851562 21.449219 L 11.992188 21.613281 L 12.0625 21.6875 C 12.117188 21.75 12.21875 21.734375 12.257812 21.660156 C 12.277344 21.617188 12.269531 21.566406 12.238281 21.53125 L 12.171875 21.453125 L 12.101562 21.375 L 11.960938 21.210938 L 11.890625 21.132812 L 11.820312 21.050781 L 11.746094 20.96875 L 11.675781 20.886719 L 11.609375 20.808594 L 11.539062 20.722656 L 11.46875 20.640625 C 11.449219 20.621094 11.421875 20.605469 11.394531 20.601562 C 11.398438 20.574219 11.386719 20.546875 11.367188 20.523438 L 11.328125 20.476562 L 11.257812 20.394531 L 11.191406 20.3125 L 11.121094 20.226562 L 10.921875 19.980469 L 10.851562 19.894531 L 10.71875 19.730469 L 10.625 19.613281 C 10.585938 19.5625 10.515625 19.554688 10.464844 19.589844 C 10.410156 19.628906 10.398438 19.707031 10.441406 19.761719 L 10.53125 19.878906 L 10.601562 19.960938 L 10.667969 20.046875 L 10.734375 20.128906 L 10.804688 20.210938 L 10.871094 20.296875 L 10.941406 20.378906 L 11.007812 20.460938 L 11.078125 20.546875 L 11.148438 20.628906 L 11.1875 20.675781 C 11.207031 20.699219 11.230469 20.714844 11.257812 20.71875 C 11.257812 20.746094 11.265625 20.773438 11.285156 20.796875 Z M 5.863281 13.707031 C 5.738281 13.558594 5.6875 13.378906 5.703125 13.199219 C 5.71875 13.023438 5.804688 12.851562 5.949219 12.726562 C 5.964844 12.714844 5.980469 12.699219 5.996094 12.691406 L 5.976562 12.644531 L 5.9375 12.570312 L 5.902344 12.488281 L 5.867188 12.414062 L 5.835938 12.335938 L 5.765625 12.179688 L 5.734375 12.101562 L 5.699219 12.027344 L 5.667969 11.949219 L 5.632812 11.871094 L 5.601562 11.796875 L 5.570312 11.71875 L 5.554688 11.683594 C 5.519531 11.59375 5.601562 11.5 5.699219 11.523438 C 5.734375 11.535156 5.761719 11.558594 5.777344 11.59375 L 5.789062 11.628906 L 5.820312 11.703125 L 5.855469 11.78125 L 5.886719 11.855469 L 5.917969 11.933594 L 5.949219 12.007812 L 5.984375 12.085938 L 6.015625 12.160156 L 6.050781 12.238281 L 6.085938 12.3125 L 6.191406 12.546875 L 6.210938 12.585938 C 6.292969 12.5625 6.375 12.554688 6.460938 12.5625 C 6.636719 12.574219 6.808594 12.65625 6.929688 12.804688 C 7.054688 12.949219 7.105469 13.132812 7.089844 13.308594 C 7.074219 13.488281 6.992188 13.660156 6.84375 13.785156 C 6.832031 13.792969 6.824219 13.800781 6.8125 13.808594 L 6.851562 13.882812 L 6.894531 13.960938 L 6.933594 14.042969 L 6.980469 14.121094 L 7.066406 14.285156 L 7.109375 14.363281 L 7.152344 14.445312 L 7.199219 14.523438 L 7.246094 14.605469 L 7.289062 14.6875 L 7.328125 14.753906 C 7.347656 14.789062 7.347656 14.832031 7.328125 14.871094 C 7.28125 14.949219 7.167969 14.953125 7.121094 14.875 L 7.082031 14.804688 L 7.035156 14.722656 L 6.992188 14.640625 L 6.945312 14.558594 L 6.902344 14.480469 L 6.855469 14.398438 L 6.8125 14.316406 L 6.769531 14.238281 L 6.683594 14.074219 L 6.640625 13.996094 L 6.601562 13.917969 C 6.511719 13.945312 6.421875 13.953125 6.335938 13.945312 C 6.15625 13.933594 5.984375 13.851562 5.863281 13.707031 Z M 6.355469 13.710938 C 6.472656 13.722656 6.59375 13.683594 6.691406 13.605469 C 6.789062 13.519531 6.84375 13.410156 6.855469 13.292969 C 6.863281 13.175781 6.832031 13.054688 6.75 12.957031 C 6.667969 12.863281 6.554688 12.808594 6.4375 12.796875 C 6.320312 12.789062 6.199219 12.824219 6.101562 12.90625 C 6.003906 12.988281 5.949219 13.101562 5.941406 13.21875 C 5.929688 13.335938 5.964844 13.457031 6.042969 13.550781 C 6.128906 13.648438 6.238281 13.703125 6.355469 13.710938 Z M 9.820312 18.566406 L 9.757812 18.480469 L 9.699219 18.398438 L 9.636719 18.316406 L 9.574219 18.230469 L 9.515625 18.148438 L 9.457031 18.0625 L 9.394531 17.980469 L 9.335938 17.898438 L 9.277344 17.8125 L 9.21875 17.730469 C 9.167969 17.660156 9.0625 17.664062 9.019531 17.738281 C 8.996094 17.78125 8.996094 17.828125 9.023438 17.867188 L 9.085938 17.953125 L 9.144531 18.035156 L 9.203125 18.121094 L 9.261719 18.203125 L 9.324219 18.289062 L 9.382812 18.371094 L 9.445312 18.453125 L 9.507812 18.539062 L 9.570312 18.621094 L 9.628906 18.707031 L 9.71875 18.824219 C 9.773438 18.894531 9.882812 18.882812 9.917969 18.800781 C 9.9375 18.761719 9.933594 18.714844 9.910156 18.679688 Z M 8.488281 16.652344 L 8.378906 16.488281 L 8.328125 16.40625 L 8.273438 16.320312 L 8.222656 16.238281 L 8.167969 16.15625 L 7.964844 15.828125 L 7.925781 15.765625 C 7.90625 15.734375 7.875 15.714844 7.839844 15.710938 C 7.742188 15.699219 7.671875 15.808594 7.722656 15.890625 L 7.761719 15.953125 L 7.8125 16.035156 L 7.863281 16.121094 L 7.914062 16.203125 L 7.96875 16.285156 L 8.019531 16.367188 L 8.074219 16.453125 L 8.125 16.535156 L 8.234375 16.699219 L 8.289062 16.785156 L 8.359375 16.890625 C 8.40625 16.964844 8.519531 16.957031 8.5625 16.878906 C 8.582031 16.839844 8.578125 16.796875 8.554688 16.757812 Z M 5.34375 10.449219 L 5.320312 10.375 L 5.296875 10.304688 L 5.273438 10.230469 L 5.179688 9.949219 L 5.140625 9.808594 L 5.117188 9.738281 L 5.058594 9.527344 L 5.039062 9.460938 L 5.015625 9.375 C 5.007812 9.347656 4.988281 9.320312 4.960938 9.304688 C 4.871094 9.25 4.757812 9.335938 4.785156 9.4375 L 4.808594 9.523438 L 4.867188 9.734375 L 4.890625 9.804688 L 4.910156 9.878906 L 4.957031 10.019531 L 4.976562 10.09375 L 5.023438 10.234375 L 5.046875 10.308594 L 5.070312 10.378906 L 5.09375 10.453125 L 5.121094 10.523438 L 5.136719 10.574219 C 5.148438 10.601562 5.164062 10.621094 5.1875 10.636719 C 5.28125 10.695312 5.398438 10.601562 5.359375 10.496094 Z M 4.75 8.195312 L 4.742188 8.136719 L 4.730469 8.070312 L 4.707031 7.945312 L 4.683594 7.757812 L 4.675781 7.699219 L 4.660156 7.574219 L 4.652344 7.515625 L 4.648438 7.453125 L 4.640625 7.394531 L 4.636719 7.335938 L 4.632812 7.273438 L 4.625 7.214844 L 4.621094 7.15625 L 4.617188 7.101562 L 4.617188 7.074219 C 4.617188 7.046875 4.605469 7.019531 4.585938 7 C 4.507812 6.921875 4.375 6.980469 4.378906 7.089844 L 4.382812 7.117188 L 4.390625 7.234375 L 4.398438 7.359375 L 4.40625 7.417969 L 4.410156 7.480469 L 4.425781 7.605469 L 4.433594 7.664062 L 4.4375 7.730469 L 4.445312 7.792969 L 4.457031 7.855469 L 4.464844 7.917969 L 4.476562 7.984375 L 4.484375 8.046875 L 4.496094 8.113281 L 4.503906 8.175781 L 4.515625 8.242188 L 4.523438 8.277344 C 4.527344 8.308594 4.546875 8.339844 4.578125 8.355469 C 4.664062 8.410156 4.773438 8.332031 4.757812 8.234375 Z M 4.652344 5.855469 L 4.660156 5.804688 L 4.667969 5.757812 L 4.675781 5.707031 L 4.683594 5.660156 L 4.691406 5.609375 L 4.699219 5.5625 L 4.710938 5.515625 L 4.71875 5.46875 L 4.753906 5.328125 L 4.765625 5.285156 L 4.777344 5.238281 L 4.800781 5.152344 L 4.816406 5.109375 L 4.828125 5.0625 L 4.84375 5.023438 L 4.859375 4.976562 L 4.871094 4.9375 L 4.902344 4.851562 L 4.917969 4.8125 L 4.925781 4.796875 C 4.9375 4.769531 4.941406 4.742188 4.929688 4.710938 C 4.894531 4.609375 4.753906 4.609375 4.707031 4.707031 L 4.703125 4.726562 L 4.683594 4.769531 L 4.667969 4.8125 L 4.648438 4.855469 L 4.632812 4.902344 L 4.617188 4.945312 L 4.601562 4.992188 L 4.589844 5.039062 L 4.558594 5.132812 L 4.523438 5.273438 L 4.507812 5.324219 L 4.5 5.371094 L 4.488281 5.421875 L 4.476562 5.46875 L 4.46875 5.519531 L 4.457031 5.570312 L 4.425781 5.773438 L 4.417969 5.828125 L 4.410156 5.886719 C 4.40625 5.921875 4.417969 5.957031 4.445312 5.980469 C 4.511719 6.054688 4.632812 6.011719 4.644531 5.914062 Z M 5.5625 3.847656 L 5.625 3.792969 L 5.652344 3.765625 L 5.683594 3.738281 L 5.714844 3.714844 L 5.746094 3.6875 L 5.78125 3.664062 L 5.8125 3.636719 L 5.84375 3.613281 L 5.878906 3.59375 L 5.910156 3.570312 L 5.980469 3.523438 L 6.050781 3.484375 L 6.085938 3.460938 L 6.15625 3.421875 L 6.191406 3.40625 L 6.230469 3.386719 L 6.265625 3.367188 L 6.519531 3.265625 C 6.546875 3.257812 6.570312 3.238281 6.585938 3.210938 C 6.636719 3.117188 6.546875 3.007812 6.445312 3.042969 L 6.421875 3.050781 L 6.335938 3.082031 L 6.292969 3.101562 L 6.253906 3.117188 L 6.167969 3.15625 L 6.128906 3.175781 L 6.089844 3.191406 L 6.050781 3.214844 L 5.972656 3.253906 L 5.816406 3.347656 L 5.78125 3.371094 L 5.746094 3.398438 L 5.707031 3.421875 L 5.53125 3.558594 L 5.5 3.589844 L 5.464844 3.617188 L 5.433594 3.648438 L 5.398438 3.679688 L 5.394531 3.6875 C 5.375 3.703125 5.359375 3.726562 5.359375 3.753906 C 5.339844 3.863281 5.472656 3.933594 5.554688 3.855469 Z M 7.695312 3.074219 L 7.890625 3.074219 L 7.992188 3.082031 L 8.042969 3.082031 L 8.144531 3.089844 L 8.199219 3.09375 L 8.25 3.097656 L 8.300781 3.105469 L 8.355469 3.109375 L 8.40625 3.117188 L 8.460938 3.121094 L 8.515625 3.128906 L 8.566406 3.136719 L 8.730469 3.160156 L 8.785156 3.171875 L 8.804688 3.175781 C 8.839844 3.179688 8.871094 3.171875 8.898438 3.152344 C 8.980469 3.089844 8.949219 2.960938 8.847656 2.941406 L 8.828125 2.9375 L 8.773438 2.929688 L 8.714844 2.917969 L 8.605469 2.902344 L 8.546875 2.894531 L 8.4375 2.878906 L 8.382812 2.875 L 8.328125 2.867188 L 8.273438 2.863281 L 8.21875 2.855469 L 8.167969 2.851562 L 8.113281 2.851562 L 8.058594 2.847656 L 8.007812 2.84375 L 7.953125 2.839844 L 7.902344 2.839844 L 7.847656 2.835938 L 7.695312 2.835938 L 7.648438 2.839844 C 7.5625 2.839844 7.503906 2.925781 7.539062 3.007812 C 7.558594 3.046875 7.601562 3.074219 7.648438 3.074219 Z M 9.992188 3.484375 L 10.054688 3.503906 L 10.113281 3.523438 L 10.175781 3.542969 L 10.238281 3.566406 L 10.296875 3.585938 L 10.359375 3.609375 L 10.417969 3.632812 L 10.605469 3.703125 L 10.667969 3.730469 L 10.730469 3.753906 L 10.792969 3.78125 L 10.855469 3.804688 L 10.917969 3.832031 L 10.984375 3.859375 L 11.027344 3.878906 C 11.054688 3.890625 11.085938 3.890625 11.113281 3.882812 C 11.214844 3.84375 11.222656 3.703125 11.125 3.660156 L 11.078125 3.640625 L 11.011719 3.613281 L 10.949219 3.585938 L 10.886719 3.5625 L 10.820312 3.535156 L 10.757812 3.507812 L 10.632812 3.460938 L 10.566406 3.433594 L 10.378906 3.363281 L 10.316406 3.34375 L 10.253906 3.320312 L 10.195312 3.300781 L 10.132812 3.277344 L 10.070312 3.257812 L 10.011719 3.238281 C 9.945312 3.214844 9.871094 3.257812 9.855469 3.324219 C 9.84375 3.386719 9.875 3.445312 9.933594 3.464844 Z M 12.152344 4.421875 L 12.285156 4.492188 L 12.355469 4.527344 L 12.421875 4.566406 L 12.488281 4.601562 L 12.554688 4.640625 L 12.621094 4.675781 L 12.691406 4.714844 L 12.757812 4.753906 L 12.828125 4.792969 L 12.894531 4.835938 L 12.960938 4.875 L 13.03125 4.914062 L 13.105469 4.960938 C 13.179688 5.003906 13.273438 4.960938 13.289062 4.878906 C 13.296875 4.828125 13.273438 4.78125 13.234375 4.757812 L 13.152344 4.710938 L 13.085938 4.667969 L 13.015625 4.628906 L 12.949219 4.589844 L 12.878906 4.550781 L 12.808594 4.507812 L 12.742188 4.472656 L 12.675781 4.433594 L 12.535156 4.355469 L 12.402344 4.285156 L 12.335938 4.246094 L 12.195312 4.175781 C 12.117188 4.132812 12.023438 4.191406 12.023438 4.28125 C 12.023438 4.324219 12.046875 4.363281 12.085938 4.386719 Z M 14.140625 5.617188 L 14.210938 5.667969 L 14.351562 5.761719 L 14.421875 5.8125 L 14.492188 5.859375 L 14.632812 5.960938 L 14.703125 6.007812 L 14.773438 6.058594 L 14.847656 6.113281 L 15.058594 6.265625 C 15.082031 6.285156 15.113281 6.292969 15.144531 6.289062 C 15.25 6.273438 15.285156 6.136719 15.199219 6.074219 L 15.058594 5.972656 L 14.988281 5.917969 L 14.914062 5.867188 L 14.703125 5.714844 L 14.628906 5.664062 L 14.558594 5.617188 L 14.488281 5.566406 L 14.417969 5.519531 L 14.34375 5.46875 L 14.273438 5.421875 L 14.234375 5.394531 C 14.203125 5.375 14.167969 5.367188 14.132812 5.378906 C 14.035156 5.40625 14.015625 5.535156 14.097656 5.589844 Z M 16.0625 7.039062 L 16.136719 7.097656 L 16.207031 7.15625 L 16.28125 7.214844 L 16.351562 7.273438 L 16.425781 7.332031 L 16.496094 7.390625 L 16.570312 7.453125 L 16.640625 7.511719 L 16.714844 7.574219 L 16.785156 7.636719 L 16.898438 7.730469 C 16.964844 7.785156 17.066406 7.753906 17.089844 7.671875 C 17.101562 7.628906 17.085938 7.578125 17.050781 7.550781 L 16.941406 7.457031 L 16.867188 7.394531 L 16.796875 7.332031 L 16.722656 7.269531 L 16.648438 7.210938 L 16.578125 7.148438 L 16.429688 7.03125 L 16.359375 6.972656 L 16.285156 6.914062 L 16.214844 6.855469 L 16.140625 6.796875 C 16.113281 6.773438 16.078125 6.765625 16.042969 6.773438 C 15.945312 6.792969 15.914062 6.917969 15.992188 6.980469 Z M 17.875 8.597656 L 17.945312 8.667969 L 18.019531 8.734375 L 18.089844 8.800781 L 18.164062 8.867188 L 18.234375 8.9375 L 18.308594 9.003906 L 18.378906 9.074219 L 18.453125 9.144531 L 18.523438 9.214844 L 18.628906 9.316406 C 18.652344 9.339844 18.683594 9.351562 18.714844 9.351562 C 18.820312 9.347656 18.871094 9.222656 18.796875 9.148438 L 18.691406 9.042969 L 18.617188 8.972656 L 18.546875 8.902344 L 18.472656 8.835938 L 18.398438 8.765625 L 18.328125 8.695312 L 18.253906 8.628906 L 18.179688 8.558594 L 18.109375 8.492188 L 18.035156 8.425781 L 17.9375 8.335938 C 17.871094 8.273438 17.765625 8.304688 17.742188 8.390625 C 17.730469 8.433594 17.742188 8.480469 17.777344 8.507812 Z M 19.535156 10.226562 L 19.605469 10.300781 L 19.679688 10.375 L 19.75 10.453125 L 19.820312 10.527344 L 19.894531 10.605469 L 19.964844 10.679688 L 20.035156 10.757812 L 20.109375 10.835938 L 20.179688 10.910156 L 20.265625 11.003906 C 20.324219 11.066406 20.421875 11.050781 20.460938 10.976562 C 20.480469 10.933594 20.472656 10.882812 20.441406 10.84375 L 20.355469 10.75 L 20.28125 10.671875 L 20.210938 10.59375 L 20.140625 10.519531 L 20.066406 10.441406 L 19.996094 10.363281 L 19.921875 10.289062 L 19.851562 10.210938 L 19.777344 10.136719 L 19.707031 10.0625 L 19.632812 9.984375 C 19.570312 9.921875 19.464844 9.945312 19.433594 10.027344 C 19.421875 10.070312 19.429688 10.117188 19.460938 10.148438 Z M 21.097656 11.945312 L 21.519531 12.4375 L 21.585938 12.519531 L 21.65625 12.605469 L 21.726562 12.6875 L 21.804688 12.785156 C 21.820312 12.804688 21.847656 12.820312 21.875 12.824219 C 21.984375 12.84375 22.054688 12.71875 21.988281 12.632812 L 21.90625 12.535156 L 21.839844 12.453125 L 21.769531 12.367188 L 21.558594 12.121094 L 21.488281 12.035156 L 21.421875 11.953125 L 21.347656 11.871094 L 21.277344 11.789062 L 21.226562 11.730469 C 21.203125 11.703125 21.171875 11.6875 21.136719 11.6875 C 21.035156 11.6875 20.980469 11.808594 21.046875 11.882812 Z M 22.585938 13.765625 L 22.648438 13.851562 L 22.710938 13.933594 L 22.777344 14.015625 L 22.839844 14.101562 L 22.964844 14.265625 L 23.027344 14.351562 L 23.085938 14.433594 L 23.148438 14.515625 L 23.207031 14.601562 L 23.242188 14.644531 C 23.289062 14.710938 23.390625 14.707031 23.4375 14.640625 C 23.464844 14.597656 23.464844 14.542969 23.433594 14.503906 L 23.402344 14.457031 L 23.277344 14.292969 L 23.214844 14.207031 L 23.15625 14.125 L 23.09375 14.039062 L 23.027344 13.957031 L 22.964844 13.871094 L 22.902344 13.789062 L 22.835938 13.703125 L 22.773438 13.621094 L 22.722656 13.558594 C 22.707031 13.535156 22.675781 13.519531 22.644531 13.515625 C 22.542969 13.5 22.472656 13.621094 22.535156 13.703125 Z M 23.972656 15.679688 L 24.03125 15.765625 L 24.195312 16.011719 L 24.25 16.097656 L 24.46875 16.425781 L 24.519531 16.507812 L 24.566406 16.585938 C 24.613281 16.65625 24.71875 16.65625 24.769531 16.585938 C 24.792969 16.542969 24.792969 16.496094 24.769531 16.457031 L 24.71875 16.378906 L 24.667969 16.296875 L 24.613281 16.214844 L 24.558594 16.128906 L 24.449219 15.964844 L 24.394531 15.878906 L 24.339844 15.796875 L 24.28125 15.714844 L 24.226562 15.628906 L 24.167969 15.546875 L 24.117188 15.46875 C 24.078125 15.414062 24 15.402344 23.945312 15.441406 C 23.894531 15.480469 23.882812 15.550781 23.921875 15.605469 Z M 25.230469 17.660156 L 25.277344 17.738281 L 25.511719 18.148438 L 25.558594 18.226562 L 25.601562 18.308594 L 25.648438 18.390625 L 25.695312 18.46875 L 25.738281 18.550781 L 25.769531 18.605469 C 25.789062 18.648438 25.835938 18.671875 25.882812 18.664062 C 25.96875 18.65625 26.015625 18.566406 25.976562 18.488281 L 25.945312 18.433594 L 25.902344 18.355469 L 25.808594 18.191406 L 25.765625 18.109375 L 25.625 17.863281 L 25.578125 17.785156 L 25.53125 17.699219 L 25.484375 17.617188 L 25.433594 17.535156 L 25.390625 17.464844 C 25.367188 17.421875 25.320312 17.398438 25.273438 17.40625 C 25.1875 17.417969 25.144531 17.511719 25.1875 17.585938 Z M 26.359375 19.746094 L 26.398438 19.824219 L 26.433594 19.902344 L 26.511719 20.058594 L 26.582031 20.214844 L 26.621094 20.289062 L 26.761719 20.601562 L 26.808594 20.710938 C 26.84375 20.785156 26.941406 20.804688 27.003906 20.742188 C 27.039062 20.707031 27.046875 20.65625 27.027344 20.613281 L 27.011719 20.578125 L 26.976562 20.503906 L 26.800781 20.113281 L 26.761719 20.035156 L 26.726562 19.953125 L 26.648438 19.796875 L 26.613281 19.71875 L 26.574219 19.636719 L 26.523438 19.539062 C 26.507812 19.511719 26.484375 19.492188 26.453125 19.480469 C 26.351562 19.453125 26.265625 19.554688 26.3125 19.648438 Z M 27.292969 21.882812 L 27.347656 22.03125 L 27.375 22.101562 L 27.398438 22.175781 L 27.425781 22.25 L 27.453125 22.320312 L 27.476562 22.394531 L 27.503906 22.46875 L 27.550781 22.609375 L 27.574219 22.683594 L 27.621094 22.824219 L 27.644531 22.902344 C 27.671875 22.984375 27.773438 23.011719 27.835938 22.953125 C 27.871094 22.921875 27.886719 22.875 27.871094 22.832031 L 27.847656 22.75 L 27.824219 22.679688 L 27.800781 22.605469 L 27.777344 22.535156 L 27.753906 22.460938 L 27.726562 22.386719 L 27.703125 22.316406 L 27.648438 22.167969 L 27.625 22.09375 L 27.542969 21.871094 L 27.511719 21.796875 L 27.480469 21.710938 C 27.46875 21.675781 27.441406 21.648438 27.40625 21.640625 C 27.3125 21.609375 27.222656 21.703125 27.257812 21.796875 Z M 27.964844 24.066406 L 27.980469 24.132812 L 27.992188 24.199219 L 28.007812 24.261719 L 28.019531 24.328125 L 28.035156 24.394531 L 28.046875 24.460938 L 28.0625 24.523438 L 28.074219 24.589844 L 28.097656 24.714844 L 28.109375 24.78125 L 28.117188 24.84375 L 28.128906 24.90625 L 28.136719 24.96875 L 28.148438 25.03125 L 28.164062 25.15625 L 28.167969 25.183594 C 28.179688 25.265625 28.269531 25.308594 28.339844 25.269531 C 28.386719 25.246094 28.410156 25.199219 28.402344 25.152344 L 28.382812 24.996094 L 28.371094 24.929688 L 28.363281 24.867188 L 28.351562 24.804688 L 28.328125 24.671875 L 28.316406 24.609375 L 28.308594 24.542969 L 28.292969 24.476562 L 28.28125 24.410156 L 28.265625 24.34375 L 28.253906 24.277344 L 28.238281 24.210938 L 28.226562 24.144531 L 28.210938 24.078125 L 28.195312 24.007812 L 28.1875 23.976562 C 28.175781 23.9375 28.152344 23.90625 28.113281 23.894531 C 28.023438 23.863281 27.9375 23.941406 27.957031 24.03125 Z M 28.242188 26.378906 L 28.242188 26.433594 L 28.238281 26.488281 L 28.238281 26.542969 L 28.234375 26.59375 L 28.230469 26.648438 L 28.230469 26.703125 L 28.222656 26.753906 L 28.222656 26.804688 L 28.214844 26.855469 L 28.207031 26.957031 L 28.191406 27.058594 L 28.1875 27.109375 L 28.179688 27.15625 L 28.164062 27.257812 L 28.148438 27.351562 L 28.136719 27.398438 L 28.128906 27.445312 L 28.117188 27.496094 C 28.109375 27.527344 28.113281 27.5625 28.132812 27.589844 C 28.191406 27.675781 28.324219 27.648438 28.347656 27.550781 L 28.359375 27.492188 L 28.371094 27.445312 L 28.386719 27.34375 L 28.398438 27.292969 L 28.429688 27.089844 L 28.433594 27.035156 L 28.441406 26.984375 L 28.445312 26.929688 L 28.453125 26.875 L 28.457031 26.824219 L 28.472656 26.605469 L 28.472656 26.546875 L 28.476562 26.492188 L 28.476562 26.4375 L 28.480469 26.378906 L 28.480469 26.347656 C 28.480469 26.3125 28.46875 26.285156 28.445312 26.261719 C 28.371094 26.1875 28.242188 26.242188 28.242188 26.347656 Z M 27.671875 28.59375 L 27.648438 28.628906 L 27.625 28.660156 L 27.578125 28.730469 L 27.554688 28.761719 L 27.527344 28.792969 L 27.503906 28.824219 L 27.476562 28.859375 L 27.453125 28.886719 L 27.398438 28.949219 L 27.3125 29.035156 L 27.285156 29.066406 L 27.191406 29.148438 L 27.164062 29.175781 L 27.128906 29.203125 L 27.101562 29.226562 L 27.066406 29.25 L 27.035156 29.273438 L 27.003906 29.300781 L 26.933594 29.347656 L 26.902344 29.367188 C 26.882812 29.378906 26.863281 29.402344 26.855469 29.429688 C 26.820312 29.535156 26.9375 29.625 27.03125 29.566406 L 27.066406 29.542969 L 27.101562 29.515625 L 27.140625 29.492188 L 27.316406 29.355469 L 27.347656 29.324219 L 27.382812 29.296875 L 27.445312 29.234375 L 27.480469 29.203125 L 27.542969 29.140625 L 27.570312 29.109375 L 27.601562 29.074219 L 27.632812 29.042969 L 27.796875 28.832031 L 27.820312 28.792969 L 27.847656 28.757812 L 27.871094 28.71875 L 27.894531 28.683594 C 27.910156 28.65625 27.917969 28.625 27.910156 28.59375 C 27.886719 28.492188 27.75 28.46875 27.695312 28.558594 Z M 25.800781 29.78125 L 25.714844 29.796875 L 25.667969 29.804688 L 25.625 29.808594 L 25.578125 29.8125 L 25.53125 29.820312 L 25.390625 29.832031 L 25.34375 29.832031 L 25.296875 29.835938 L 25.25 29.835938 L 25.199219 29.839844 L 24.953125 29.839844 L 24.90625 29.835938 L 24.851562 29.835938 L 24.804688 29.832031 L 24.753906 29.828125 L 24.695312 29.824219 C 24.667969 29.820312 24.636719 29.832031 24.613281 29.847656 C 24.527344 29.914062 24.5625 30.050781 24.671875 30.0625 L 24.734375 30.066406 L 24.789062 30.066406 L 24.839844 30.070312 L 24.894531 30.074219 L 24.945312 30.074219 L 24.996094 30.078125 L 25.152344 30.078125 L 25.203125 30.074219 L 25.304688 30.074219 L 25.40625 30.066406 L 25.453125 30.0625 L 25.554688 30.054688 L 25.601562 30.050781 L 25.652344 30.042969 L 25.699219 30.039062 L 25.886719 30.007812 C 25.984375 29.988281 26.019531 29.863281 25.941406 29.800781 C 25.914062 29.777344 25.882812 29.769531 25.847656 29.773438 Z M 23.5 29.621094 L 23.382812 29.589844 L 23.328125 29.574219 L 23.269531 29.558594 L 23.207031 29.542969 L 23.148438 29.523438 L 23.089844 29.507812 L 22.914062 29.449219 L 22.851562 29.429688 L 22.792969 29.410156 L 22.730469 29.390625 L 22.671875 29.371094 L 22.609375 29.347656 L 22.550781 29.328125 L 22.488281 29.304688 L 22.433594 29.285156 C 22.402344 29.273438 22.375 29.273438 22.34375 29.285156 C 22.246094 29.328125 22.246094 29.46875 22.347656 29.503906 L 22.464844 29.550781 L 22.527344 29.570312 L 22.589844 29.59375 L 22.652344 29.613281 L 22.714844 29.636719 L 22.839844 29.675781 L 22.898438 29.695312 L 22.960938 29.714844 L 23.019531 29.734375 L 23.082031 29.75 L 23.140625 29.769531 L 23.203125 29.785156 L 23.261719 29.804688 L 23.378906 29.835938 L 23.488281 29.863281 C 23.574219 29.882812 23.652344 29.808594 23.632812 29.722656 C 23.625 29.679688 23.589844 29.644531 23.546875 29.632812 Z M 21.285156 28.792969 L 21.21875 28.761719 L 21.15625 28.730469 L 21.089844 28.699219 L 21.023438 28.664062 L 20.957031 28.632812 L 20.425781 28.351562 L 20.359375 28.3125 L 20.3125 28.289062 C 20.242188 28.246094 20.152344 28.289062 20.136719 28.371094 C 20.128906 28.421875 20.152344 28.46875 20.195312 28.492188 L 20.242188 28.519531 L 20.308594 28.558594 L 20.378906 28.59375 L 20.445312 28.632812 L 20.511719 28.667969 L 20.582031 28.703125 L 20.847656 28.84375 L 20.914062 28.875 L 20.980469 28.910156 L 21.050781 28.941406 L 21.113281 28.972656 L 21.179688 29.003906 L 21.25 29.039062 C 21.28125 29.054688 21.3125 29.054688 21.34375 29.042969 C 21.441406 29.003906 21.449219 28.871094 21.355469 28.824219 Z M 19.265625 27.660156 L 19.125 27.574219 L 18.984375 27.480469 L 18.917969 27.4375 L 18.636719 27.25 L 18.566406 27.199219 L 18.425781 27.105469 L 18.328125 27.035156 C 18.300781 27.019531 18.269531 27.011719 18.238281 27.015625 C 18.136719 27.035156 18.105469 27.167969 18.191406 27.230469 L 18.289062 27.296875 L 18.429688 27.398438 L 18.5 27.445312 L 18.574219 27.492188 L 18.996094 27.773438 L 19.136719 27.859375 L 19.175781 27.886719 C 19.210938 27.910156 19.25 27.910156 19.289062 27.894531 C 19.375 27.855469 19.382812 27.738281 19.304688 27.6875 Z M 17.285156 26.269531 L 17.144531 26.160156 L 17.070312 26.105469 L 17 26.046875 L 16.925781 25.992188 L 16.855469 25.933594 L 16.78125 25.875 L 16.640625 25.757812 L 16.566406 25.699219 L 16.457031 25.613281 C 16.394531 25.558594 16.296875 25.589844 16.269531 25.667969 C 16.257812 25.714844 16.269531 25.765625 16.308594 25.792969 L 16.414062 25.882812 L 16.488281 25.941406 L 16.5625 26.003906 L 16.632812 26.0625 L 16.707031 26.117188 L 16.777344 26.175781 L 16.851562 26.234375 L 16.921875 26.289062 L 16.996094 26.347656 L 17.070312 26.402344 L 17.140625 26.457031 L 17.234375 26.53125 C 17.257812 26.550781 17.289062 26.558594 17.320312 26.554688 C 17.425781 26.542969 17.464844 26.410156 17.378906 26.34375 Z M 15.480469 24.773438 L 15.40625 24.710938 L 15.265625 24.578125 L 15.191406 24.515625 L 15.117188 24.449219 L 15.046875 24.382812 L 14.972656 24.316406 L 14.902344 24.25 L 14.828125 24.179688 L 14.757812 24.113281 L 14.695312 24.058594 C 14.648438 24.011719 14.578125 24.015625 14.53125 24.0625 C 14.484375 24.109375 14.484375 24.1875 14.535156 24.230469 L 14.59375 24.285156 L 14.664062 24.355469 L 14.8125 24.488281 L 14.882812 24.558594 L 15.105469 24.757812 L 15.175781 24.824219 L 15.25 24.886719 L 15.320312 24.953125 L 15.40625 25.027344 C 15.472656 25.082031 15.574219 25.054688 15.597656 24.972656 C 15.613281 24.925781 15.597656 24.878906 15.566406 24.847656 Z M 13.742188 23.128906 L 13.671875 23.054688 L 13.597656 22.984375 L 13.457031 22.835938 L 13.382812 22.761719 L 13.242188 22.613281 L 13.167969 22.539062 L 13.097656 22.464844 L 13.035156 22.394531 C 13.007812 22.367188 12.972656 22.355469 12.933594 22.359375 C 12.839844 22.371094 12.792969 22.488281 12.859375 22.558594 L 12.925781 22.625 L 12.996094 22.703125 L 13.066406 22.777344 L 13.214844 22.925781 L 13.285156 23 L 13.355469 23.078125 L 13.429688 23.148438 L 13.5 23.222656 L 13.683594 23.40625 C 13.707031 23.429688 13.734375 23.441406 13.765625 23.441406 C 13.871094 23.441406 13.925781 23.316406 13.851562 23.238281 Z M 13.742188 23.128906 "/>
<path style=" stroke:none;fill-rule:nonzero;fill:rgb(38.431373%,76.078433%,100%);fill-opacity:1;" d="M 19.972656 22.167969 C 20 22.148438 20.015625 22.125 20.023438 22.101562 C 20.050781 22.105469 20.078125 22.101562 20.105469 22.082031 L 20.15625 22.050781 L 20.25 21.992188 L 20.429688 21.875 L 20.523438 21.820312 L 20.882812 21.585938 L 20.972656 21.523438 L 21.097656 21.441406 C 21.152344 21.40625 21.167969 21.328125 21.125 21.273438 C 21.089844 21.222656 21.019531 21.207031 20.964844 21.242188 L 20.839844 21.328125 L 20.75 21.386719 L 20.664062 21.445312 L 20.574219 21.503906 L 20.484375 21.558594 L 20.214844 21.734375 L 20.121094 21.792969 L 20.03125 21.847656 L 19.980469 21.882812 C 19.953125 21.898438 19.9375 21.921875 19.929688 21.945312 C 19.902344 21.941406 19.871094 21.949219 19.847656 21.964844 L 19.757812 22.019531 L 19.664062 22.078125 L 19.574219 22.132812 L 19.480469 22.191406 L 19.386719 22.246094 L 19.296875 22.300781 L 19.203125 22.355469 L 19.113281 22.410156 L 19.019531 22.464844 L 18.929688 22.519531 L 18.839844 22.570312 C 18.800781 22.59375 18.777344 22.640625 18.785156 22.6875 C 18.796875 22.773438 18.890625 22.820312 18.960938 22.777344 L 19.050781 22.726562 L 19.140625 22.667969 L 19.234375 22.617188 L 19.328125 22.5625 L 19.417969 22.503906 L 19.605469 22.394531 L 19.695312 22.335938 L 19.789062 22.28125 L 19.882812 22.222656 Z M 27.316406 17.089844 C 27.152344 17.191406 26.964844 17.214844 26.792969 17.175781 C 26.707031 17.152344 26.625 17.117188 26.550781 17.066406 L 26.488281 17.125 L 26.421875 17.1875 L 26.355469 17.253906 L 26.15625 17.441406 L 26.089844 17.507812 L 26.023438 17.570312 L 25.953125 17.632812 L 25.886719 17.699219 L 25.816406 17.761719 L 25.757812 17.8125 C 25.691406 17.875 25.582031 17.839844 25.5625 17.746094 C 25.554688 17.707031 25.570312 17.664062 25.597656 17.636719 L 25.65625 17.585938 L 25.722656 17.523438 L 25.792969 17.457031 L 26.257812 17.019531 L 26.320312 16.953125 L 26.378906 16.894531 C 26.371094 16.886719 26.367188 16.875 26.359375 16.863281 C 26.257812 16.699219 26.230469 16.507812 26.269531 16.335938 C 26.308594 16.160156 26.414062 16.003906 26.578125 15.902344 C 26.738281 15.800781 26.925781 15.777344 27.101562 15.816406 C 27.183594 15.835938 27.257812 15.871094 27.328125 15.917969 L 27.363281 15.886719 L 27.417969 15.824219 L 27.476562 15.761719 L 27.53125 15.695312 L 27.589844 15.636719 L 27.863281 15.324219 L 27.917969 15.257812 L 27.96875 15.199219 L 28.023438 15.136719 L 28.046875 15.105469 C 28.074219 15.078125 28.105469 15.0625 28.140625 15.066406 C 28.242188 15.070312 28.292969 15.183594 28.230469 15.261719 L 28.203125 15.289062 L 28.152344 15.355469 L 28.097656 15.414062 L 28.042969 15.480469 L 27.878906 15.667969 L 27.820312 15.730469 L 27.765625 15.796875 L 27.707031 15.859375 L 27.652344 15.921875 L 27.535156 16.046875 L 27.503906 16.082031 C 27.515625 16.097656 27.523438 16.113281 27.535156 16.132812 C 27.636719 16.292969 27.664062 16.484375 27.625 16.65625 C 27.585938 16.832031 27.476562 16.988281 27.316406 17.089844 Z M 26.84375 16.945312 C 26.957031 16.972656 27.082031 16.953125 27.191406 16.886719 C 27.296875 16.820312 27.367188 16.71875 27.394531 16.605469 C 27.417969 16.488281 27.402344 16.363281 27.335938 16.253906 C 27.265625 16.148438 27.164062 16.078125 27.046875 16.050781 C 26.933594 16.023438 26.808594 16.039062 26.703125 16.105469 C 26.597656 16.171875 26.527344 16.277344 26.5 16.390625 C 26.472656 16.503906 26.492188 16.628906 26.558594 16.738281 C 26.625 16.84375 26.730469 16.917969 26.84375 16.945312 Z M 21.933594 20.578125 C 21.898438 20.601562 21.878906 20.648438 21.886719 20.691406 C 21.898438 20.777344 22 20.824219 22.074219 20.773438 L 22.191406 20.6875 L 22.277344 20.628906 L 22.359375 20.566406 L 22.445312 20.507812 L 22.53125 20.445312 L 22.613281 20.382812 L 22.695312 20.324219 L 22.777344 20.261719 L 22.863281 20.199219 L 22.945312 20.140625 L 23.027344 20.074219 C 23.066406 20.046875 23.082031 20.003906 23.070312 19.957031 C 23.054688 19.871094 22.953125 19.835938 22.882812 19.886719 L 22.800781 19.949219 L 22.71875 20.007812 L 22.636719 20.070312 L 22.554688 20.128906 L 22.390625 20.253906 L 22.304688 20.3125 L 22.222656 20.375 L 22.136719 20.433594 L 22.054688 20.492188 Z M 23.8125 19.164062 C 23.78125 19.191406 23.765625 19.234375 23.773438 19.277344 C 23.789062 19.367188 23.894531 19.40625 23.960938 19.351562 L 24.0625 19.273438 L 24.136719 19.210938 L 24.292969 19.085938 L 24.441406 18.960938 L 24.519531 18.898438 L 24.59375 18.832031 L 24.816406 18.644531 L 24.875 18.597656 C 24.949219 18.535156 24.914062 18.410156 24.820312 18.390625 C 24.78125 18.382812 24.746094 18.394531 24.71875 18.414062 L 24.664062 18.464844 L 24.589844 18.523438 L 24.515625 18.589844 L 24.441406 18.648438 L 24.367188 18.710938 L 24.292969 18.777344 L 24.214844 18.835938 L 24.066406 18.960938 Z M 28.78125 14.191406 C 28.714844 14.277344 28.796875 14.402344 28.902344 14.378906 C 28.929688 14.371094 28.953125 14.355469 28.972656 14.335938 L 29 14.292969 L 29.046875 14.230469 L 29.09375 14.171875 L 29.136719 14.109375 L 29.183594 14.046875 L 29.226562 13.984375 L 29.269531 13.925781 L 29.3125 13.863281 L 29.359375 13.800781 L 29.398438 13.742188 L 29.484375 13.617188 L 29.523438 13.558594 L 29.566406 13.496094 L 29.605469 13.4375 L 29.652344 13.363281 C 29.710938 13.273438 29.628906 13.15625 29.527344 13.179688 C 29.5 13.1875 29.472656 13.207031 29.457031 13.234375 L 29.40625 13.304688 L 29.328125 13.421875 L 29.289062 13.484375 L 29.246094 13.542969 L 29.203125 13.605469 L 29.164062 13.664062 L 29.121094 13.726562 L 29.035156 13.84375 L 28.992188 13.90625 L 28.945312 13.96875 L 28.902344 14.027344 L 28.859375 14.089844 L 28.8125 14.148438 Z M 30.050781 12.222656 C 30.003906 12.316406 30.085938 12.417969 30.183594 12.394531 C 30.21875 12.386719 30.246094 12.367188 30.261719 12.335938 L 30.277344 12.304688 L 30.339844 12.1875 L 30.367188 12.128906 L 30.398438 12.074219 L 30.425781 12.015625 L 30.457031 11.957031 L 30.484375 11.898438 L 30.511719 11.84375 L 30.535156 11.785156 L 30.5625 11.726562 L 30.589844 11.671875 L 30.613281 11.613281 L 30.636719 11.558594 L 30.664062 11.5 L 30.683594 11.445312 L 30.710938 11.386719 L 30.730469 11.332031 L 30.753906 11.277344 L 30.761719 11.25 C 30.800781 11.148438 30.691406 11.050781 30.597656 11.101562 C 30.570312 11.117188 30.554688 11.136719 30.542969 11.164062 L 30.53125 11.1875 L 30.511719 11.242188 L 30.464844 11.351562 L 30.445312 11.40625 L 30.421875 11.460938 L 30.394531 11.515625 L 30.371094 11.574219 L 30.347656 11.628906 L 30.320312 11.683594 L 30.296875 11.738281 L 30.269531 11.796875 L 30.242188 11.851562 L 30.214844 11.910156 L 30.1875 11.964844 L 30.15625 12.019531 L 30.128906 12.078125 L 30.097656 12.136719 L 30.070312 12.191406 Z M 30.871094 10.050781 C 30.855469 10.148438 30.957031 10.226562 31.042969 10.179688 C 31.074219 10.164062 31.097656 10.132812 31.105469 10.097656 L 31.117188 10.039062 L 31.132812 9.9375 L 31.140625 9.882812 L 31.164062 9.730469 L 31.167969 9.679688 L 31.175781 9.632812 L 31.191406 9.429688 L 31.191406 9.382812 L 31.195312 9.332031 L 31.195312 9.042969 L 31.1875 8.949219 L 31.1875 8.902344 L 31.183594 8.882812 C 31.171875 8.777344 31.039062 8.734375 30.972656 8.820312 C 30.953125 8.84375 30.945312 8.875 30.949219 8.902344 L 30.949219 8.917969 L 30.953125 8.964844 L 30.957031 9.007812 L 30.957031 9.050781 L 30.960938 9.09375 L 30.960938 9.277344 L 30.957031 9.324219 L 30.957031 9.371094 L 30.953125 9.414062 L 30.949219 9.464844 L 30.949219 9.511719 L 30.945312 9.554688 L 30.9375 9.605469 L 30.929688 9.699219 L 30.921875 9.75 L 30.917969 9.796875 L 30.90625 9.84375 L 30.898438 9.894531 L 30.894531 9.945312 L 30.882812 9.992188 Z M 30.640625 7.8125 C 30.695312 7.914062 30.84375 7.886719 30.859375 7.777344 C 30.863281 7.75 30.859375 7.726562 30.847656 7.699219 L 30.84375 7.691406 L 30.820312 7.652344 L 30.800781 7.613281 L 30.777344 7.578125 L 30.730469 7.5 L 30.707031 7.464844 L 30.679688 7.425781 L 30.65625 7.390625 L 30.519531 7.214844 L 30.488281 7.179688 L 30.460938 7.148438 L 30.429688 7.113281 L 30.273438 6.957031 L 30.238281 6.925781 L 30.203125 6.898438 L 30.171875 6.867188 L 30.136719 6.835938 L 30.066406 6.78125 L 30.042969 6.765625 C 29.957031 6.703125 29.839844 6.777344 29.859375 6.882812 C 29.863281 6.914062 29.878906 6.9375 29.902344 6.957031 L 29.921875 6.96875 L 29.953125 6.996094 L 29.988281 7.023438 L 30.019531 7.046875 L 30.113281 7.128906 L 30.230469 7.246094 L 30.257812 7.277344 L 30.285156 7.304688 L 30.339844 7.367188 L 30.363281 7.398438 L 30.390625 7.429688 L 30.414062 7.460938 L 30.4375 7.496094 L 30.460938 7.527344 L 30.488281 7.558594 L 30.507812 7.59375 L 30.554688 7.664062 L 30.59375 7.734375 L 30.617188 7.769531 L 30.636719 7.804688 Z M 28.890625 6.425781 C 28.933594 6.441406 28.980469 6.429688 29.015625 6.394531 C 29.070312 6.328125 29.042969 6.230469 28.960938 6.203125 L 28.917969 6.183594 L 28.871094 6.171875 L 28.820312 6.152344 L 28.773438 6.136719 L 28.722656 6.125 L 28.621094 6.09375 L 28.570312 6.082031 L 28.515625 6.070312 L 28.464844 6.054688 L 28.414062 6.042969 L 28.304688 6.019531 L 28.253906 6.007812 L 28.199219 5.996094 L 28.144531 5.988281 L 28.089844 5.976562 L 28.035156 5.96875 L 27.976562 5.957031 L 27.867188 5.941406 L 27.808594 5.933594 L 27.789062 5.929688 C 27.6875 5.917969 27.621094 6.027344 27.675781 6.113281 C 27.695312 6.144531 27.726562 6.160156 27.757812 6.164062 L 27.777344 6.167969 L 27.832031 6.175781 L 27.890625 6.183594 L 27.941406 6.191406 L 27.996094 6.199219 L 28.050781 6.210938 L 28.101562 6.21875 L 28.15625 6.230469 L 28.207031 6.238281 L 28.257812 6.25 L 28.3125 6.261719 L 28.359375 6.273438 L 28.410156 6.285156 L 28.460938 6.300781 L 28.511719 6.3125 L 28.558594 6.324219 L 28.609375 6.339844 L 28.65625 6.351562 L 28.703125 6.367188 L 28.753906 6.382812 L 28.800781 6.394531 L 28.84375 6.410156 Z M 26.597656 6.09375 C 26.65625 6.089844 26.707031 6.046875 26.710938 5.984375 C 26.71875 5.914062 26.664062 5.855469 26.589844 5.855469 L 26.398438 5.855469 L 26.332031 5.859375 L 26.203125 5.859375 L 26.132812 5.863281 L 25.867188 5.878906 L 25.726562 5.886719 L 25.660156 5.890625 L 25.589844 5.898438 L 25.519531 5.902344 L 25.453125 5.910156 L 25.402344 5.914062 C 25.292969 5.925781 25.257812 6.058594 25.34375 6.125 C 25.367188 6.144531 25.394531 6.152344 25.425781 6.148438 L 25.476562 6.144531 L 25.542969 6.140625 L 25.613281 6.132812 L 25.746094 6.125 L 25.816406 6.117188 L 26.082031 6.101562 L 26.144531 6.101562 L 26.210938 6.097656 L 26.277344 6.097656 L 26.339844 6.09375 Z M 24.265625 6.304688 C 24.308594 6.300781 24.34375 6.269531 24.355469 6.226562 C 24.382812 6.140625 24.3125 6.058594 24.222656 6.070312 L 24.144531 6.085938 L 24.070312 6.097656 L 23.996094 6.113281 L 23.921875 6.125 L 23.765625 6.15625 L 23.691406 6.171875 L 23.535156 6.203125 L 23.460938 6.21875 L 23.304688 6.25 L 23.148438 6.289062 L 23.058594 6.308594 C 23.011719 6.320312 22.976562 6.355469 22.96875 6.40625 C 22.957031 6.488281 23.035156 6.558594 23.117188 6.539062 L 23.203125 6.519531 L 23.28125 6.5 L 23.355469 6.484375 L 23.433594 6.464844 L 23.511719 6.453125 L 23.585938 6.433594 L 23.664062 6.417969 L 23.738281 6.402344 L 23.816406 6.390625 L 24.039062 6.34375 L 24.1875 6.320312 Z M 21.980469 6.832031 C 22.074219 6.804688 22.09375 6.679688 22.011719 6.621094 C 21.980469 6.601562 21.945312 6.59375 21.910156 6.605469 L 21.863281 6.617188 L 21.78125 6.644531 L 21.617188 6.691406 L 21.53125 6.714844 L 21.449219 6.742188 L 21.367188 6.765625 L 21.285156 6.792969 L 21.113281 6.847656 L 21.03125 6.871094 L 20.949219 6.902344 L 20.863281 6.929688 L 20.78125 6.957031 C 20.679688 6.988281 20.671875 7.128906 20.769531 7.175781 C 20.796875 7.1875 20.828125 7.191406 20.855469 7.179688 L 20.9375 7.152344 L 21.023438 7.125 L 21.105469 7.097656 L 21.191406 7.070312 L 21.273438 7.046875 L 21.4375 6.992188 L 21.601562 6.945312 L 21.683594 6.917969 L 21.929688 6.847656 Z M 19.75 7.574219 C 19.84375 7.539062 19.851562 7.410156 19.765625 7.359375 C 19.734375 7.34375 19.695312 7.339844 19.664062 7.351562 L 19.578125 7.382812 L 19.492188 7.417969 L 19.402344 7.453125 L 19.316406 7.484375 L 19.226562 7.519531 L 19.140625 7.554688 L 19.050781 7.589844 L 18.964844 7.625 L 18.875 7.660156 L 18.789062 7.695312 L 18.699219 7.734375 L 18.566406 7.789062 C 18.523438 7.804688 18.496094 7.847656 18.492188 7.890625 C 18.488281 7.980469 18.578125 8.039062 18.65625 8.007812 L 18.792969 7.953125 L 18.878906 7.917969 L 18.964844 7.878906 L 19.054688 7.84375 L 19.140625 7.808594 L 19.230469 7.773438 L 19.316406 7.742188 L 19.488281 7.671875 L 19.578125 7.640625 L 19.664062 7.605469 Z M 17.582031 8.480469 C 17.621094 8.460938 17.648438 8.421875 17.648438 8.378906 C 17.652344 8.289062 17.5625 8.226562 17.480469 8.261719 L 17.359375 8.316406 L 16.910156 8.53125 L 16.816406 8.574219 L 16.636719 8.660156 L 16.546875 8.707031 L 16.414062 8.769531 C 16.320312 8.820312 16.332031 8.957031 16.429688 8.992188 C 16.460938 9 16.492188 8.996094 16.519531 8.984375 L 16.652344 8.917969 L 17.371094 8.574219 L 17.460938 8.535156 Z M 15.472656 9.519531 C 15.511719 9.5 15.535156 9.457031 15.535156 9.414062 C 15.53125 9.324219 15.4375 9.269531 15.359375 9.3125 L 15.265625 9.359375 L 15.175781 9.410156 L 15.082031 9.460938 L 14.992188 9.511719 L 14.898438 9.5625 L 14.804688 9.609375 L 14.714844 9.660156 L 14.621094 9.714844 L 14.53125 9.765625 L 14.4375 9.816406 L 14.324219 9.878906 C 14.285156 9.90625 14.261719 9.953125 14.265625 10 C 14.28125 10.082031 14.371094 10.128906 14.441406 10.085938 L 14.554688 10.023438 L 14.644531 9.972656 L 14.738281 9.921875 L 14.828125 9.871094 L 14.921875 9.820312 L 15.011719 9.769531 L 15.105469 9.71875 L 15.195312 9.667969 L 15.289062 9.621094 L 15.378906 9.570312 Z M 13.429688 10.683594 C 13.515625 10.628906 13.5 10.5 13.40625 10.46875 C 13.371094 10.457031 13.335938 10.460938 13.304688 10.480469 L 13.238281 10.519531 L 13.144531 10.578125 L 13.054688 10.632812 L 12.867188 10.75 L 12.777344 10.804688 L 12.683594 10.863281 L 12.59375 10.921875 L 12.5 10.980469 L 12.410156 11.035156 L 12.304688 11.105469 C 12.210938 11.164062 12.246094 11.308594 12.351562 11.324219 C 12.382812 11.328125 12.410156 11.320312 12.433594 11.304688 L 12.539062 11.238281 L 12.71875 11.121094 L 12.8125 11.066406 L 12.902344 11.007812 L 12.996094 10.949219 L 13.085938 10.894531 L 13.179688 10.835938 L 13.269531 10.78125 L 13.363281 10.722656 Z M 11.453125 11.957031 C 11.539062 11.898438 11.511719 11.761719 11.40625 11.742188 C 11.375 11.734375 11.34375 11.742188 11.320312 11.761719 L 11.253906 11.804688 L 11.167969 11.863281 L 11.078125 11.925781 L 10.90625 12.042969 L 10.820312 12.105469 L 10.734375 12.164062 L 10.652344 12.226562 L 10.566406 12.285156 L 10.480469 12.347656 L 10.398438 12.40625 L 10.351562 12.441406 C 10.3125 12.46875 10.296875 12.519531 10.308594 12.570312 C 10.332031 12.648438 10.425781 12.683594 10.492188 12.632812 L 10.621094 12.539062 L 10.703125 12.480469 L 10.789062 12.421875 L 10.871094 12.359375 L 10.957031 12.300781 L 11.042969 12.238281 L 11.214844 12.121094 L 11.300781 12.058594 L 11.386719 12 Z M 9.550781 13.335938 C 9.601562 13.300781 9.613281 13.226562 9.574219 13.175781 C 9.535156 13.121094 9.460938 13.109375 9.40625 13.148438 L 9.332031 13.207031 L 9.253906 13.269531 L 9.171875 13.332031 L 9.09375 13.390625 L 8.625 13.765625 L 8.550781 13.828125 L 8.480469 13.886719 C 8.445312 13.917969 8.429688 13.964844 8.441406 14.011719 C 8.464844 14.09375 8.566406 14.125 8.632812 14.070312 L 8.703125 14.015625 L 8.777344 13.953125 L 8.855469 13.890625 L 8.929688 13.828125 L 9.242188 13.578125 L 9.320312 13.519531 L 9.476562 13.394531 Z M 7.738281 14.832031 C 7.800781 14.777344 7.785156 14.675781 7.710938 14.636719 C 7.667969 14.617188 7.617188 14.621094 7.582031 14.652344 L 7.515625 14.710938 L 7.375 14.835938 L 7.304688 14.902344 L 7.09375 15.089844 L 7.027344 15.152344 L 6.957031 15.21875 L 6.886719 15.28125 L 6.753906 15.40625 L 6.707031 15.453125 C 6.644531 15.511719 6.664062 15.609375 6.738281 15.644531 C 6.785156 15.664062 6.835938 15.65625 6.871094 15.625 L 6.914062 15.582031 L 6.980469 15.519531 L 7.050781 15.457031 L 7.117188 15.394531 L 7.183594 15.328125 L 7.324219 15.203125 L 7.390625 15.140625 L 7.671875 14.890625 Z M 6.03125 16.449219 C 6.105469 16.375 6.050781 16.25 5.949219 16.246094 C 5.914062 16.246094 5.886719 16.257812 5.863281 16.28125 L 5.722656 16.421875 L 5.664062 16.488281 L 5.601562 16.550781 L 5.425781 16.738281 L 5.367188 16.804688 L 5.191406 16.992188 L 5.132812 17.058594 L 5.078125 17.121094 L 5.054688 17.148438 C 5.019531 17.183594 5.011719 17.234375 5.035156 17.277344 C 5.074219 17.355469 5.171875 17.367188 5.230469 17.304688 L 5.308594 17.214844 L 5.367188 17.15625 L 5.421875 17.089844 L 5.773438 16.714844 L 5.835938 16.652344 L 5.894531 16.589844 L 5.957031 16.527344 Z M 4.46875 18.199219 C 4.53125 18.125 4.476562 18.007812 4.375 18.007812 C 4.339844 18.007812 4.304688 18.023438 4.285156 18.050781 L 4.226562 18.125 L 4.125 18.25 L 4.03125 18.375 L 3.980469 18.433594 L 3.792969 18.683594 L 3.75 18.746094 L 3.703125 18.804688 L 3.617188 18.929688 L 3.566406 18.996094 C 3.539062 19.035156 3.539062 19.085938 3.5625 19.125 C 3.605469 19.199219 3.710938 19.207031 3.757812 19.136719 L 3.808594 19.070312 L 3.894531 18.945312 L 3.941406 18.886719 L 3.984375 18.824219 L 4.03125 18.765625 L 4.074219 18.703125 L 4.121094 18.640625 L 4.167969 18.582031 L 4.214844 18.519531 L 4.265625 18.457031 L 4.3125 18.398438 L 4.363281 18.335938 L 4.410156 18.273438 Z M 3.117188 20.113281 C 3.164062 20.035156 3.105469 19.929688 3.011719 19.933594 C 2.96875 19.9375 2.933594 19.957031 2.914062 19.992188 L 2.898438 20.019531 L 2.859375 20.078125 L 2.828125 20.136719 L 2.792969 20.199219 L 2.722656 20.316406 L 2.660156 20.433594 L 2.625 20.492188 L 2.5625 20.609375 L 2.535156 20.667969 L 2.472656 20.785156 L 2.445312 20.839844 L 2.414062 20.898438 L 2.359375 21.015625 L 2.347656 21.039062 C 2.324219 21.085938 2.335938 21.136719 2.371094 21.175781 C 2.425781 21.234375 2.527344 21.21875 2.5625 21.144531 L 2.574219 21.117188 L 2.628906 21.007812 L 2.65625 20.949219 L 2.683594 20.894531 L 2.714844 20.835938 L 2.742188 20.777344 L 2.773438 20.722656 L 2.835938 20.605469 L 2.867188 20.550781 L 2.929688 20.433594 L 2.964844 20.375 L 2.996094 20.316406 L 3.03125 20.261719 L 3.101562 20.144531 Z M 2.132812 22.226562 C 2.164062 22.128906 2.058594 22.039062 1.964844 22.085938 C 1.9375 22.101562 1.917969 22.125 1.90625 22.15625 L 1.894531 22.1875 L 1.863281 22.296875 L 1.847656 22.347656 L 1.835938 22.402344 L 1.820312 22.457031 L 1.804688 22.507812 L 1.792969 22.5625 L 1.78125 22.613281 L 1.769531 22.667969 L 1.757812 22.71875 L 1.746094 22.773438 L 1.734375 22.824219 L 1.71875 22.925781 L 1.707031 22.980469 L 1.691406 23.082031 L 1.6875 23.132812 L 1.671875 23.234375 L 1.667969 23.285156 L 1.660156 23.339844 C 1.65625 23.441406 1.769531 23.507812 1.851562 23.445312 C 1.878906 23.425781 1.894531 23.394531 1.898438 23.359375 L 1.902344 23.308594 L 1.910156 23.261719 L 1.914062 23.214844 L 1.917969 23.164062 L 1.933594 23.070312 L 1.941406 23.019531 L 1.949219 22.972656 L 1.957031 22.921875 L 1.980469 22.820312 L 1.988281 22.773438 L 2.035156 22.570312 L 2.050781 22.519531 L 2.0625 22.46875 L 2.078125 22.414062 L 2.09375 22.363281 L 2.105469 22.3125 L 2.121094 22.257812 Z M 1.972656 24.5 C 1.945312 24.398438 1.808594 24.378906 1.757812 24.46875 C 1.742188 24.496094 1.734375 24.53125 1.746094 24.558594 L 1.753906 24.601562 L 1.765625 24.644531 L 1.78125 24.6875 L 1.804688 24.773438 L 1.820312 24.816406 L 1.835938 24.855469 L 1.867188 24.941406 L 1.882812 24.980469 L 1.902344 25.023438 L 1.917969 25.0625 L 1.9375 25.101562 L 1.957031 25.144531 L 1.980469 25.183594 L 2.019531 25.261719 L 2.042969 25.300781 L 2.066406 25.335938 L 2.136719 25.453125 L 2.160156 25.488281 L 2.214844 25.558594 L 2.238281 25.597656 L 2.269531 25.628906 L 2.292969 25.664062 C 2.363281 25.75 2.503906 25.699219 2.503906 25.585938 C 2.5 25.558594 2.492188 25.535156 2.476562 25.511719 L 2.453125 25.484375 L 2.429688 25.453125 L 2.402344 25.421875 L 2.355469 25.351562 L 2.332031 25.320312 L 2.308594 25.285156 L 2.289062 25.25 L 2.269531 25.21875 L 2.246094 25.179688 L 2.167969 25.039062 L 2.152344 25 L 2.136719 24.964844 L 2.117188 24.929688 L 2.085938 24.851562 L 2.070312 24.816406 L 2.058594 24.777344 L 2.042969 24.738281 L 1.996094 24.582031 L 1.984375 24.539062 Z M 3.355469 26.226562 C 3.324219 26.210938 3.289062 26.207031 3.257812 26.222656 C 3.164062 26.257812 3.15625 26.390625 3.246094 26.4375 L 3.289062 26.457031 L 3.328125 26.480469 L 3.371094 26.503906 L 3.414062 26.523438 L 3.460938 26.542969 L 3.503906 26.5625 L 3.550781 26.585938 L 3.59375 26.601562 L 3.6875 26.640625 L 3.730469 26.660156 L 3.78125 26.675781 L 3.828125 26.695312 L 3.921875 26.726562 L 3.972656 26.742188 L 4.019531 26.761719 L 4.070312 26.777344 L 4.121094 26.789062 L 4.222656 26.820312 L 4.273438 26.832031 L 4.324219 26.847656 L 4.382812 26.859375 C 4.492188 26.886719 4.570312 26.765625 4.503906 26.675781 C 4.488281 26.652344 4.464844 26.636719 4.4375 26.628906 L 4.378906 26.617188 L 4.332031 26.601562 L 4.28125 26.589844 L 4.234375 26.578125 L 4.183594 26.5625 L 4.136719 26.546875 L 4.089844 26.535156 L 3.949219 26.488281 L 3.90625 26.46875 L 3.859375 26.453125 L 3.816406 26.4375 L 3.769531 26.421875 L 3.683594 26.382812 L 3.640625 26.367188 L 3.597656 26.347656 L 3.558594 26.328125 L 3.515625 26.308594 L 3.476562 26.289062 L 3.433594 26.269531 L 3.394531 26.246094 Z M 5.585938 26.800781 C 5.542969 26.796875 5.5 26.820312 5.476562 26.859375 C 5.433594 26.933594 5.484375 27.03125 5.574219 27.035156 L 5.621094 27.039062 L 5.808594 27.050781 L 5.867188 27.054688 L 5.996094 27.054688 L 6.058594 27.058594 L 6.507812 27.058594 L 6.574219 27.054688 L 6.640625 27.054688 L 6.707031 27.050781 L 6.769531 27.046875 C 6.875 27.042969 6.917969 26.910156 6.839844 26.839844 C 6.8125 26.820312 6.785156 26.808594 6.753906 26.8125 L 6.695312 26.8125 L 6.628906 26.816406 L 6.566406 26.816406 L 6.5 26.820312 L 6.4375 26.820312 L 6.371094 26.824219 L 6.183594 26.824219 L 6.121094 26.820312 L 6.058594 26.820312 L 6 26.816406 L 5.875 26.816406 L 5.816406 26.8125 L 5.753906 26.808594 L 5.695312 26.808594 L 5.636719 26.804688 Z M 7.921875 26.707031 C 7.820312 26.71875 7.78125 26.851562 7.863281 26.917969 C 7.890625 26.9375 7.921875 26.949219 7.953125 26.941406 L 8.03125 26.933594 L 8.105469 26.921875 L 8.175781 26.910156 L 8.25 26.902344 L 8.546875 26.855469 L 8.621094 26.839844 L 8.769531 26.816406 L 8.847656 26.800781 L 8.921875 26.789062 L 9 26.773438 L 9.074219 26.757812 L 9.128906 26.746094 C 9.175781 26.738281 9.210938 26.699219 9.21875 26.648438 C 9.230469 26.570312 9.160156 26.5 9.078125 26.515625 L 9.027344 26.527344 L 8.953125 26.539062 L 8.878906 26.554688 L 8.800781 26.566406 L 8.726562 26.582031 L 8.652344 26.59375 L 8.582031 26.609375 L 8.503906 26.621094 L 8.433594 26.632812 L 8.285156 26.65625 L 8.214844 26.667969 L 8.140625 26.675781 L 8.070312 26.6875 L 8 26.695312 Z M 10.222656 26.253906 C 10.132812 26.277344 10.105469 26.394531 10.171875 26.457031 C 10.203125 26.484375 10.242188 26.496094 10.285156 26.484375 L 10.328125 26.472656 L 10.410156 26.453125 L 10.492188 26.429688 L 10.570312 26.410156 L 10.816406 26.339844 L 10.898438 26.320312 L 11.0625 26.273438 L 11.144531 26.246094 L 11.308594 26.199219 L 11.425781 26.164062 C 11.523438 26.132812 11.535156 25.996094 11.441406 25.945312 C 11.414062 25.929688 11.382812 25.925781 11.351562 25.9375 L 11.238281 25.96875 L 11.15625 25.996094 L 10.992188 26.042969 L 10.914062 26.066406 L 10.667969 26.136719 L 10.589844 26.15625 L 10.507812 26.179688 L 10.429688 26.203125 L 10.347656 26.222656 Z M 12.46875 25.566406 C 12.367188 25.605469 12.363281 25.746094 12.460938 25.789062 C 12.488281 25.800781 12.519531 25.800781 12.546875 25.792969 L 12.660156 25.753906 L 13.003906 25.628906 L 13.089844 25.59375 L 13.179688 25.5625 L 13.265625 25.53125 L 13.351562 25.496094 L 13.441406 25.460938 L 13.527344 25.429688 L 13.65625 25.378906 C 13.703125 25.359375 13.730469 25.316406 13.730469 25.269531 C 13.730469 25.183594 13.648438 25.125 13.570312 25.15625 L 13.441406 25.207031 L 13.351562 25.242188 L 13.265625 25.273438 L 13.179688 25.308594 L 12.921875 25.402344 L 12.835938 25.4375 L 12.75 25.464844 L 12.578125 25.527344 Z M 14.65625 24.707031 C 14.613281 24.726562 14.585938 24.765625 14.582031 24.8125 C 14.582031 24.898438 14.671875 24.957031 14.75 24.921875 L 14.855469 24.878906 L 14.941406 24.839844 L 15.121094 24.761719 L 15.210938 24.71875 L 15.300781 24.679688 L 15.390625 24.636719 L 15.480469 24.597656 L 15.574219 24.554688 L 15.753906 24.46875 L 15.828125 24.433594 C 15.886719 24.40625 15.910156 24.335938 15.882812 24.273438 C 15.851562 24.214844 15.78125 24.191406 15.726562 24.21875 L 15.652344 24.253906 L 15.472656 24.339844 L 15.382812 24.378906 L 15.292969 24.421875 L 15.203125 24.460938 L 15.113281 24.503906 L 14.933594 24.582031 L 14.847656 24.621094 L 14.757812 24.660156 Z M 16.777344 23.699219 C 16.683594 23.75 16.699219 23.886719 16.796875 23.917969 C 16.828125 23.929688 16.859375 23.925781 16.886719 23.914062 L 17.027344 23.84375 L 17.117188 23.792969 L 17.207031 23.746094 L 17.300781 23.699219 L 17.394531 23.648438 L 17.484375 23.601562 L 17.574219 23.550781 L 17.667969 23.503906 L 17.761719 23.453125 L 17.851562 23.40625 L 17.933594 23.359375 C 18.019531 23.3125 18.011719 23.1875 17.921875 23.148438 C 17.890625 23.132812 17.851562 23.132812 17.816406 23.152344 L 17.738281 23.195312 L 17.644531 23.246094 L 17.554688 23.292969 L 17.464844 23.34375 L 17.371094 23.390625 L 17.28125 23.441406 L 17.191406 23.488281 L 17.097656 23.535156 L 16.917969 23.628906 Z M 16.777344 23.699219 "/>
<path style=" stroke:none;fill-rule:evenodd;fill:rgb(93.725491%,87.450981%,64.705884%);fill-opacity:1;" d="M 23.441406 1.921875 C 23.441406 2.941406 24.265625 3.777344 25.277344 3.777344 C 24.265625 3.777344 23.441406 4.609375 23.441406 5.632812 C 23.441406 4.609375 22.613281 3.777344 21.605469 3.777344 C 22.613281 3.777344 23.441406 2.941406 23.441406 1.921875 Z M 23.441406 1.921875 "/>
<path style=" stroke:none;fill-rule:evenodd;fill:rgb(38.431373%,76.078433%,100%);fill-opacity:1;" d="M 2.636719 13.363281 C 2.636719 14.382812 3.464844 15.214844 4.476562 15.214844 C 3.464844 15.214844 2.636719 16.050781 2.636719 17.070312 C 2.636719 16.050781 1.8125 15.214844 0.804688 15.214844 C 1.8125 15.214844 2.636719 14.382812 2.636719 13.363281 Z M 2.636719 13.363281 "/>
<path style=" stroke:none;fill-rule:evenodd;fill:rgb(93.725491%,87.450981%,64.705884%);fill-opacity:1;" d="M 28.9375 18.074219 C 28.9375 18.683594 29.433594 19.179688 30.035156 19.179688 C 29.433594 19.179688 28.9375 19.679688 28.9375 20.285156 C 28.9375 19.679688 28.445312 19.179688 27.84375 19.179688 C 28.445312 19.179688 28.9375 18.683594 28.9375 18.074219 Z M 28.9375 18.074219 "/>
<path style=" stroke:none;fill-rule:nonzero;fill:rgb(38.431373%,76.078433%,100%);fill-opacity:1;" d="M 18.285156 26.632812 C 17.789062 26.632812 17.054688 26.15625 16.800781 25.902344 C 16.613281 25.710938 16.484375 25.476562 16.402344 25.210938 C 16.382812 25.273438 16.363281 25.328125 16.34375 25.375 C 15.992188 26.148438 15.144531 26.625 14.558594 26.625 C 14.402344 26.625 14.273438 26.59375 14.167969 26.523438 C 14.015625 26.429688 13.929688 26.269531 13.929688 26.089844 C 13.929688 25.886719 14.015625 25.757812 14.097656 25.664062 C 13.6875 25.941406 13.179688 26.082031 12.828125 26.082031 C 12.523438 26.082031 11.886719 26.082031 11.886719 25.585938 C 11.886719 25.265625 12.15625 25.070312 12.394531 24.898438 C 12.691406 24.683594 12.886719 24.523438 12.886719 24.277344 C 12.886719 23.832031 12.878906 22.898438 12.875 22.371094 C 12.652344 22.390625 12.347656 22.410156 11.992188 22.410156 C 9.863281 22.410156 9.246094 20.949219 9.011719 20.398438 C 8.703125 19.664062 8.320312 19.308594 7.835938 18.996094 C 7.421875 18.726562 7.40625 18.445312 7.433594 18.304688 C 7.457031 18.175781 7.558594 17.953125 7.9375 17.882812 C 8.066406 17.855469 8.1875 17.84375 8.304688 17.84375 C 9.253906 17.84375 9.796875 18.554688 10.277344 19.175781 C 10.582031 19.574219 10.867188 19.945312 11.195312 20.050781 C 11.4375 20.125 11.71875 20.167969 12.011719 20.167969 C 12.394531 20.167969 12.765625 20.097656 13.019531 19.980469 C 13.09375 19.589844 13.285156 19.238281 13.511719 18.949219 C 11.171875 18.597656 9.617188 17.671875 8.765625 16.125 L 8.773438 16.121094 C 8.578125 15.875 8.441406 15.441406 8.386719 15.242188 L 8.378906 15.246094 C 8.113281 14.457031 7.984375 13.554688 7.980469 12.488281 C 7.980469 10.699219 8.527344 9.953125 9.230469 9.054688 C 8.726562 7.035156 9.476562 5.65625 9.507812 5.597656 C 9.558594 5.511719 9.640625 5.449219 9.738281 5.429688 C 9.761719 5.421875 9.851562 5.40625 10.003906 5.40625 C 10.519531 5.40625 11.617188 5.582031 13.269531 6.730469 C 13.957031 6.492188 15.089844 6.351562 16.367188 6.351562 C 17.441406 6.351562 18.433594 6.453125 19.128906 6.628906 C 19.921875 6.125 21.347656 5.367188 22.242188 5.367188 C 22.394531 5.367188 22.527344 5.386719 22.644531 5.429688 C 22.714844 5.453125 22.777344 5.503906 22.820312 5.570312 C 23.070312 5.976562 23.441406 6.925781 23.136719 8.785156 C 23.167969 8.832031 23.214844 8.882812 23.261719 8.941406 C 23.71875 9.5 24.570312 10.539062 24.574219 12.730469 C 24.558594 13.699219 24.457031 14.503906 24.273438 15.199219 C 24.246094 15.363281 24.148438 15.863281 23.941406 16.132812 C 23.0625 18.03125 21.25 18.652344 19.304688 18.929688 C 19.785156 19.503906 19.949219 20.3125 19.949219 21.773438 C 19.949219 22.894531 19.9375 23.429688 19.933594 23.773438 C 19.929688 23.996094 19.925781 24.132812 19.929688 24.300781 C 19.933594 24.570312 20.242188 24.792969 20.488281 24.976562 C 20.726562 25.152344 20.972656 25.332031 20.921875 25.625 C 20.871094 25.921875 20.582031 26.074219 20.070312 26.074219 C 19.773438 26.074219 19.449219 26.027344 19.226562 25.945312 C 19.054688 25.886719 18.90625 25.816406 18.777344 25.734375 C 18.832031 25.832031 18.867188 25.941406 18.867188 26.0625 C 18.867188 26.402344 18.632812 26.632812 18.285156 26.632812 Z M 18.285156 26.632812 "/>
<path style=" stroke:none;fill-rule:nonzero;fill:rgb(28.235295%,69.01961%,96.078432%);fill-opacity:1;" d="M 8.019531 15.132812 C 7.757812 14.359375 7.640625 13.476562 7.640625 12.484375 C 7.640625 10.730469 8.1875 10.070312 8.921875 9.132812 C 8.359375 7.132812 9.121094 5.765625 9.121094 5.765625 C 9.121094 5.765625 10.304688 5.519531 12.535156 7.117188 C 13.746094 6.597656 16.972656 6.558594 18.5 7 C 19.4375 6.382812 21.152344 5.503906 21.84375 5.75 C 22.03125 6.054688 22.433594 6.929688 22.085938 8.859375 C 22.320312 9.28125 23.542969 10.183594 23.546875 12.734375 C 23.527344 13.671875 23.429688 14.464844 23.246094 15.136719 C 23.28125 15.136719 23.015625 15.96875 22.953125 15.96875 C 22.144531 17.742188 20.480469 18.40625 17.800781 18.683594 C 18.667969 19.230469 18.917969 19.914062 18.917969 21.773438 C 18.917969 23.628906 18.894531 23.878906 18.898438 24.304688 C 18.910156 25.007812 19.9375 25.34375 19.898438 25.570312 C 19.859375 25.792969 19.039062 25.757812 18.65625 25.625 C 17.566406 25.246094 17.675781 24.339844 17.675781 24.339844 L 17.640625 21.855469 C 17.640625 21.855469 17.714844 20.519531 17.21875 20.519531 L 17.21875 24.585938 C 17.21875 25.46875 17.835938 25.734375 17.835938 26.0625 C 17.835938 26.625 16.707031 26.007812 16.359375 25.660156 C 15.828125 25.125 15.890625 23.996094 15.902344 23.105469 C 15.914062 22.242188 15.894531 20.355469 15.894531 20.355469 L 15.53125 20.363281 C 15.53125 20.363281 15.679688 24.484375 15.34375 25.234375 C 14.90625 26.199219 13.589844 26.53125 13.589844 26.089844 C 13.589844 25.796875 13.914062 25.890625 14.09375 25.226562 C 14.246094 24.664062 14.191406 20.460938 14.191406 20.460938 C 14.191406 20.460938 13.769531 20.714844 13.769531 21.5 C 13.769531 21.859375 13.761719 23.917969 13.761719 24.527344 C 13.761719 25.300781 12.667969 25.738281 12.140625 25.738281 C 11.875 25.738281 11.542969 25.726562 11.542969 25.585938 C 11.542969 25.226562 12.542969 25.019531 12.542969 24.277344 C 12.542969 23.636719 12.53125 21.980469 12.53125 21.980469 C 12.53125 21.980469 12.023438 22.070312 11.304688 22.070312 C 9.488281 22.070312 8.914062 20.910156 8.644531 20.265625 C 8.289062 19.417969 7.828125 19.023438 7.335938 18.707031 C 7.035156 18.511719 6.96875 18.28125 7.316406 18.21875 C 8.921875 17.914062 9.332031 20.039062 10.40625 20.375 C 11.171875 20.617188 12.15625 20.511719 12.644531 20.195312 C 12.710938 19.546875 13.179688 18.988281 13.566406 18.691406 C 10.839844 18.429688 9.222656 17.484375 8.382812 15.960938 C 8.371094 15.960938 7.984375 15.132812 8.019531 15.132812 Z M 8.019531 15.132812 "/>
<path style=" stroke:none;fill-rule:nonzero;fill:rgb(13.725491%,29.019609%,65.882355%);fill-opacity:1;" d="M 22.242188 5.710938 C 22.351562 5.710938 22.445312 5.722656 22.527344 5.75 C 22.714844 6.054688 23.117188 6.929688 22.773438 8.859375 C 23.007812 9.28125 24.226562 10.183594 24.230469 12.734375 C 24.214844 13.671875 24.113281 14.464844 23.933594 15.136719 C 23.96875 15.136719 23.703125 15.96875 23.640625 15.96875 C 22.828125 17.742188 21.167969 18.40625 18.484375 18.683594 C 19.355469 19.230469 19.605469 19.914062 19.605469 21.773438 C 19.605469 23.628906 19.578125 23.878906 19.585938 24.304688 C 19.59375 25.007812 20.621094 25.34375 20.582031 25.570312 C 20.5625 25.683594 20.335938 25.730469 20.070312 25.730469 C 19.816406 25.730469 19.527344 25.6875 19.339844 25.625 C 18.25 25.246094 18.359375 24.339844 18.359375 24.339844 L 18.324219 21.855469 C 18.324219 21.855469 18.398438 20.519531 17.902344 20.519531 L 17.902344 24.585938 C 17.902344 25.46875 18.523438 25.734375 18.523438 26.0625 C 18.523438 26.226562 18.429688 26.289062 18.285156 26.289062 C 17.933594 26.289062 17.292969 25.910156 17.042969 25.660156 C 16.515625 25.125 16.574219 23.996094 16.585938 23.105469 C 16.601562 22.242188 16.578125 20.355469 16.578125 20.355469 L 16.21875 20.363281 C 16.21875 20.363281 16.367188 24.484375 16.03125 25.234375 C 15.71875 25.917969 14.96875 26.28125 14.558594 26.28125 C 14.386719 26.28125 14.273438 26.21875 14.273438 26.089844 C 14.273438 25.796875 14.597656 25.890625 14.777344 25.226562 C 14.929688 24.664062 14.878906 20.460938 14.878906 20.460938 C 14.878906 20.460938 14.457031 20.714844 14.457031 21.5 C 14.457031 21.859375 14.445312 23.917969 14.445312 24.527344 C 14.445312 25.300781 13.351562 25.738281 12.828125 25.738281 C 12.558594 25.738281 12.230469 25.726562 12.230469 25.585938 C 12.230469 25.226562 13.230469 25.019531 13.230469 24.277344 C 13.230469 23.636719 13.214844 21.980469 13.214844 21.980469 C 13.214844 21.980469 12.710938 22.070312 11.992188 22.070312 C 10.175781 22.070312 9.601562 20.910156 9.328125 20.265625 C 8.972656 19.417969 8.511719 19.023438 8.023438 18.707031 C 7.722656 18.511719 7.652344 18.28125 8 18.21875 C 8.105469 18.199219 8.207031 18.1875 8.304688 18.1875 C 9.664062 18.1875 10.089844 20.058594 11.089844 20.375 C 11.378906 20.46875 11.699219 20.507812 12.011719 20.507812 C 12.527344 20.507812 13.027344 20.394531 13.332031 20.195312 C 13.398438 19.546875 13.863281 18.988281 14.253906 18.691406 C 11.523438 18.429688 9.90625 17.484375 9.066406 15.960938 C 9.058594 15.960938 8.671875 15.132812 8.703125 15.132812 C 8.441406 14.359375 8.324219 13.476562 8.324219 12.484375 C 8.324219 10.730469 8.871094 10.070312 9.605469 9.132812 C 9.046875 7.132812 9.808594 5.765625 9.808594 5.765625 C 9.808594 5.765625 9.875 5.75 10.003906 5.75 C 10.421875 5.75 11.515625 5.894531 13.222656 7.117188 C 13.878906 6.835938 15.121094 6.695312 16.367188 6.695312 C 17.425781 6.695312 18.484375 6.796875 19.1875 7 C 20.011719 6.457031 21.441406 5.710938 22.242188 5.710938 M 22.242188 5.023438 C 21.199219 5.023438 19.6875 5.882812 19.070312 6.265625 C 18.359375 6.101562 17.394531 6.007812 16.367188 6.007812 C 15.753906 6.007812 14.339844 6.046875 13.324219 6.351562 C 11.671875 5.238281 10.542969 5.066406 10.003906 5.066406 C 9.824219 5.066406 9.710938 5.082031 9.667969 5.09375 C 9.476562 5.132812 9.308594 5.257812 9.210938 5.429688 C 9.175781 5.492188 8.402344 6.910156 8.859375 8.972656 C 8.1875 9.839844 7.640625 10.675781 7.640625 12.484375 C 7.640625 13.59375 7.777344 14.53125 8.054688 15.355469 L 8.0625 15.351562 C 8.121094 15.605469 8.253906 16.027344 8.484375 16.320312 C 9.328125 17.828125 10.792969 18.777344 12.941406 19.199219 C 12.855469 19.363281 12.78125 19.539062 12.726562 19.722656 C 12.546875 19.78125 12.296875 19.824219 12.011719 19.824219 C 11.753906 19.824219 11.507812 19.789062 11.296875 19.722656 C 11.074219 19.652344 10.808594 19.304688 10.546875 18.96875 C 10.074219 18.347656 9.421875 17.503906 8.304688 17.503906 C 8.164062 17.503906 8.019531 17.515625 7.875 17.542969 C 7.257812 17.65625 7.125 18.105469 7.097656 18.238281 C 7.0625 18.421875 7.042969 18.890625 7.652344 19.285156 C 8.09375 19.570312 8.421875 19.875 8.695312 20.53125 C 8.929688 21.082031 9.636719 22.753906 11.992188 22.753906 C 12.191406 22.753906 12.375 22.75 12.535156 22.738281 C 12.539062 23.261719 12.542969 23.921875 12.542969 24.277344 C 12.542969 24.363281 12.339844 24.511719 12.191406 24.617188 C 11.917969 24.816406 11.542969 25.089844 11.542969 25.585938 C 11.542969 26.140625 11.976562 26.425781 12.828125 26.425781 C 13.054688 26.425781 13.328125 26.378906 13.609375 26.28125 C 13.691406 26.648438 14.015625 26.96875 14.558594 26.96875 C 15.144531 26.96875 15.914062 26.597656 16.394531 25.953125 C 16.445312 26.019531 16.5 26.082031 16.558594 26.144531 C 16.847656 26.433594 17.652344 26.976562 18.285156 26.976562 C 18.738281 26.976562 19.085938 26.699219 19.183594 26.292969 C 19.433594 26.371094 19.765625 26.417969 20.070312 26.417969 C 20.996094 26.417969 21.214844 25.960938 21.261719 25.683594 C 21.347656 25.183594 20.953125 24.894531 20.691406 24.703125 C 20.585938 24.625 20.273438 24.394531 20.273438 24.296875 C 20.269531 24.132812 20.273438 23.996094 20.277344 23.777344 C 20.28125 23.433594 20.289062 22.894531 20.289062 21.773438 C 20.289062 20.667969 20.210938 19.835938 19.878906 19.183594 C 21.699219 18.859375 23.359375 18.15625 24.226562 16.328125 C 24.472656 15.996094 24.574219 15.503906 24.609375 15.273438 C 24.796875 14.554688 24.898438 13.726562 24.917969 12.746094 C 24.914062 10.417969 23.976562 9.273438 23.527344 8.722656 C 23.515625 8.710938 23.507812 8.699219 23.5 8.6875 C 23.765625 6.914062 23.441406 5.917969 23.109375 5.390625 C 23.027344 5.257812 22.90625 5.15625 22.757812 5.105469 C 22.605469 5.050781 22.433594 5.023438 22.242188 5.023438 Z M 22.242188 5.023438 "/>
</g>
</svg>
