<?xml version="1.0" encoding="UTF-8"?>
<svg xmlns="http://www.w3.org/2000/svg" xmlns:xlink="http://www.w3.org/1999/xlink" width="32px" height="32px" viewBox="0 0 32 32" version="1.1">
<g id="surface1">
<path style=" stroke:none;fill-rule:nonzero;fill:rgb(12.54902%,74.509805%,100%);fill-opacity:1;" d="M 24.105469 29.78125 L 15.921875 19.605469 L 23.769531 12.011719 C 23.914062 11.859375 23.867188 11.421875 23.472656 11.421875 L 19.585938 11.421875 C 19.390625 11.421875 19.195312 11.523438 18.996094 11.71875 L 11.570312 19.226562 L 11.570312 2.046875 C 11.570312 1.765625 11.429688 1.625 11.148438 1.625 L 8.234375 1.625 C 7.953125 1.625 7.816406 1.765625 7.816406 2.046875 L 7.816406 29.949219 C 7.816406 30.230469 7.953125 30.371094 8.234375 30.371094 L 11.148438 30.371094 C 11.429688 30.371094 11.570312 30.230469 11.570312 29.949219 L 11.570312 23.828125 L 13.300781 22.183594 L 19.503906 30.078125 C 19.671875 30.273438 19.867188 30.375 20.09375 30.375 L 23.847656 30.375 C 24.046875 30.375 24.15625 30.320312 24.183594 30.207031 Z M 24.105469 29.78125 "/>
</g>
</svg>
